<?xml version="1.0" encoding="UTF-8"?>
<svg id="Layer_2" data-name="Layer 2" xmlns="http://www.w3.org/2000/svg" viewBox="0 0 28.26 38.73">
  <defs>
    <style>
      .cls-1 {
        fill: #fff;
        stroke: #fff;
        stroke-miterlimit: 10;
        stroke-width: .25px;
      }
    </style>
  </defs>
  <g id="Layer_1-2" data-name="Layer 1">
    <path class="cls-1" d="M27.09,4.63c-2.25-.53-3.05-1.53-4.07-3.46l-8.3-.06c-.91,1.8-1.79,3.49-4.05,3.55-.11.74,0,1.5-.03,2.25-.02.54.32,1.39-.52,1.22-.99-1.02-.43-2.86-.48-4.15,2.67-.33,3.63-1.24,4.2-3.85l10.3.3c.21,2.23,2.18,2.88,4.01,3.68v24.17c0,.19-.59.57-.89.52-2.01-.37-3.57.28-5.66-.3-.6-.17-.97.26-.81-.75h6.3V4.63Z"/>
    <path class="cls-1" d="M18.96,3.41c1.2-.02,2.29.95,2.31,2.17.02,1.28-1.17,2.29-2.41,2.22-1.12-.06-2.14-1-2.14-2.19,0-1.22,1.06-2.18,2.24-2.2ZM19.11,4.01c-.85-.07-1.6.5-1.77,1.27-.19.89.48,1.74,1.31,1.92.95.19,1.96-.52,2.01-1.49.04-.82-.63-1.6-1.55-1.7Z"/>
    <path class="cls-1" d="M.12,13.92c.71-.81,1.95-.5,2.78-1.08,1.01-.7.96-2.67,1.64-2.91,1.67.17,8.97-.52,9.77.3.55.56.47,2.06,1.23,2.62.84.63,1.77.1,2.52.8.53.49.6,1.21.64,1.64.63,7.49,0,21.05,0,21.05-.05,1.08-.08,1.93-.09,2.26-5.88,0-11.76,0-17.65-.01-.29.08-.84-.36-.84-.51V13.92ZM1.18,14.44v23.12h16.46V14.44c-2.09-.28-3.4-1.41-3.91-3.45H5.25c-1.07,1.94-1.57,3.18-4.07,3.45Z"/>
    <path class="cls-1" d="M10.5,13.99c.67.6.87,1.61.5,2.35-.58,1.17-2.49,1.49-3.41.51-.64-.68-.72-1.92,0-2.72.76-.85,2.1-.86,2.91-.14ZM9.12,14.13c-.74.02-1.43.62-1.43,1.36,0,.82.85,1.44,1.65,1.35.65-.08,1.29-.65,1.28-1.37-.01-.77-.75-1.35-1.49-1.34Z"/>
    <polygon class="cls-1" points="8.88 24.95 9.93 25.47 9.93 34.23 9.4 34.75 8.88 34.23 8.88 24.95"/>
    <polygon class="cls-1" points="5.38 25.47 5.9 24.95 6.43 25.47 6.43 34.23 5.9 34.75 5.38 34.23 5.38 25.47"/>
    <rect class="cls-1" x="12.38" y="24.95" width=".7" height="9.81"/>
  </g>
</svg>