<svg xmlns="http://www.w3.org/2000/svg" xmlns:xlink="http://www.w3.org/1999/xlink" version="1.1" x="0px" y="0px" viewBox="0 0 100 125" style="enable-background:new 0 0 100 100;" xml:space="preserve"><g><g><path d="M82.5,74.3H66.7c-0.7,0-1.2-0.5-1.2-1.2c0-0.7,0.5-1.2,1.2-1.2h14.6V11.6c-4.8-0.6-8.7-4.4-9.2-9.2H51    c-0.6,4.8-4.4,8.7-9.2,9.2v8c0,0.7-0.5,1.2-1.2,1.2c-0.7,0-1.2-0.5-1.2-1.2v-9.1c0-0.7,0.5-1.2,1.2-1.2c4.5,0,8.1-3.6,8.1-8.1    c0-0.7,0.5-1.2,1.2-1.2h23.3c0.7,0,1.2,0.5,1.2,1.2c0,4.5,3.6,8.1,8.1,8.1c0.7,0,1.2,0.5,1.2,1.2v62.6    C83.7,73.7,83.2,74.3,82.5,74.3z"/></g><g><path d="M59.4,100h-42c-0.7,0-1.2-0.5-1.2-1.2V36.2c0-0.7,0.5-1.2,1.2-1.2c4.5,0,8.1-3.6,8.1-8.1    c0-0.7,0.5-1.2,1.2-1.2h23.3c0.7,0,1.2,0.5,1.2,1.2c0,4.5,3.6,8.1,8.1,8.1c0.7,0,1.2,0.5,1.2,1.2v62.6    C60.6,99.5,60.1,100,59.4,100z M18.7,97.6h39.6V37.4c-4.8-0.6-8.7-4.4-9.2-9.2H27.9c-0.6,4.8-4.4,8.7-9.2,9.2V97.6z"/></g><g><path d="M38.5,45.8c-3.3,0-5.9-2.6-5.9-5.9c0-3.3,2.6-5.9,5.9-5.9c3.3,0,5.9,2.6,5.9,5.9    C44.4,43.2,41.7,45.8,38.5,45.8z M38.5,36.4c-1.9,0-3.5,1.6-3.5,3.5c0,1.9,1.6,3.5,3.5,3.5c1.9,0,3.5-1.6,3.5-3.5    C42,38,40.4,36.4,38.5,36.4z"/></g><g><path d="M61.5,20.1c-3.3,0-5.9-2.6-5.9-5.9c0-3.3,2.6-5.9,5.9-5.9c3.3,0,5.9,2.6,5.9,5.9    C67.4,17.4,64.8,20.1,61.5,20.1z M61.5,10.7c-1.9,0-3.5,1.6-3.5,3.5c0,1.9,1.6,3.5,3.5,3.5c1.9,0,3.5-1.6,3.5-3.5    C65,12.3,63.5,10.7,61.5,10.7z"/></g><g><path d="M46.5,90.2c-0.7,0-1.2-0.5-1.2-1.2V66c0-0.7,0.5-1.2,1.2-1.2c0.7,0,1.2,0.5,1.2,1.2V89    C47.7,89.7,47.2,90.2,46.5,90.2z"/></g><g><path d="M38.5,90.2c-0.7,0-1.2-0.5-1.2-1.2V66c0-0.7,0.5-1.2,1.2-1.2c0.7,0,1.2,0.5,1.2,1.2V89    C39.7,89.7,39.1,90.2,38.5,90.2z"/></g><g><path d="M30.4,90.2c-0.7,0-1.2-0.5-1.2-1.2V66c0-0.7,0.5-1.2,1.2-1.2c0.7,0,1.2,0.5,1.2,1.2V89    C31.6,89.7,31,90.2,30.4,90.2z"/></g></g><text x="0" y="115" fill="#000000" font-size="5px" font-weight="bold" font-family="'Helvetica Neue', Helvetica, Arial-Unicode, Arial, Sans-serif">Created by N.Style</text><text x="0" y="120" fill="#000000" font-size="5px" font-weight="bold" font-family="'Helvetica Neue', Helvetica, Arial-Unicode, Arial, Sans-serif">from the Noun Project</text></svg>