<?xml version="1.0" encoding="UTF-8"?>
<svg id="Layer_2" data-name="Layer 2" xmlns="http://www.w3.org/2000/svg" viewBox="0 0 316.74 49.85" preserveAspectRatio="xMidYMid meet">
  <defs>
    <style>
      .cls-1 {
        stroke-width: .25px;
      }

      .cls-1, .cls-2, .cls-3 {
        fill: currentColor;
      }

      .cls-1, .cls-3 {
        stroke: currentColor;
        stroke-miterlimit: 10;
      }
    </style>
  </defs>
  <g id="Layer_1-2" data-name="Layer 1">
    <rect class="cls-3" x="50.55" y=".5" width="1.05" height="48.33"/>
    <path class="cls-1" d="M27.09,11.71c-2.25-.53-3.05-1.53-4.07-3.46l-8.3-.06c-.91,1.8-1.79,3.49-4.05,3.55-.11.74,0,1.5-.03,2.25-.02.54.32,1.39-.52,1.22-.99-1.02-.43-2.86-.48-4.15,2.67-.33,3.63-1.24,4.2-3.85l10.3.3c.21,2.23,2.18,2.88,4.01,3.68v24.17c0,.19-.59.57-.89.52-2.01-.37-3.57.28-5.66-.3-.6-.17-.97.26-.81-.75h6.3V11.71Z"/>
    <path class="cls-1" d="M18.96,10.48c1.2-.02,2.29.95,2.31,2.17.02,1.28-1.17,2.29-2.41,2.22-1.12-.06-2.14-1-2.14-2.19,0-1.22,1.06-2.18,2.24-2.2ZM19.11,11.08c-.85-.07-1.6.5-1.77,1.27-.19.89.48,1.74,1.31,1.92.95.19,1.96-.52,2.01-1.49.04-.82-.63-1.6-1.55-1.7Z"/>
    <path class="cls-1" d="M.12,20.99c.71-.81,1.95-.5,2.78-1.08,1.01-.7.96-2.67,1.64-2.91,1.67.17,8.97-.52,9.77.3.55.56.47,2.06,1.23,2.62.84.63,1.77.1,2.52.8.53.49.6,1.21.64,1.64.63,7.49,0,21.05,0,21.05-.05,1.08-.08,1.93-.09,2.26-5.88,0-11.76,0-17.65-.01-.29.08-.84-.36-.84-.51v-24.17ZM1.18,21.51v23.12h16.46v-23.12c-2.09-.28-3.4-1.41-3.91-3.45H5.25c-1.07,1.94-1.57,3.18-4.07,3.45Z"/>
    <path class="cls-1" d="M10.5,21.06c.67.6.87,1.61.5,2.35-.58,1.17-2.49,1.49-3.41.51-.64-.68-.72-1.92,0-2.72.76-.85,2.1-.86,2.91-.14ZM9.12,21.2c-.74.02-1.43.62-1.43,1.36,0,.82.85,1.44,1.65,1.35.65-.08,1.29-.65,1.28-1.37-.01-.77-.75-1.35-1.49-1.34Z"/>
    <polygon class="cls-1" points="8.88 32.02 9.93 32.55 9.93 41.3 9.4 41.82 8.88 41.3 8.88 32.02"/>
    <polygon class="cls-1" points="5.38 32.55 5.9 32.03 6.43 32.55 6.43 41.3 5.9 41.82 5.38 41.3 5.38 32.55"/>
    <rect class="cls-1" x="12.38" y="32.02" width=".7" height="9.81"/>
    <g class="cls-2" style="font-family: Lato, sans-serif; font-size: 40px; font-style: italic; letter-spacing: 0em;">
      <text transform="translate(67.22 39.85)"><tspan x="0" y="0">SalesAndOffers</tspan></text>
    </g>
  </g>
</svg>